PathFileType	4	(X/Y/Z)	D:\TRACE\spot_10-12-23\spot_arm_motion_2_2-v60.trc
DataRate	CameraRate	NumFrames	NumMarkers	Units	OrigDataRate	OrigDataStartFrame	OrigNumFrames
100.00	100.00	      31	9	mm	100.00	3501	      7000
Frame#	Time	front left toe			Front right toe			aft left toe			aft right toe			Arm			FL body			FR body			AL Body			AR Body			
		X1	Y1	Z1	X2	Y2	Z2	X3	Y3	Z3	X4	Y4	Z4	X5	Y5	Z5	X6	Y6	Z6	X7	Y7	Z7	X8	Y8	Z8	X9	Y9	Z9	

3501	35.000	-231.62346	11.81389	-97.42304	246.73743	21.67455	2.78056	-347.65005	60.64260	483.06161	121.28279	61.80370	583.24774	-29.81630	783.42444	-761.71539	-41.41210	552.42871	-118.77216	106.87502	560.69714	-89.93105	-216.53296	578.72748	747.40515	-69.59328	580.15558	778.53412	
3502	35.010	-232.03180	12.13493	-97.61407	247.23077	21.91560	3.35934	-346.91037	60.65024	482.91330	121.48914	62.36788	582.93518	-30.04486	782.86511	-761.71399	-42.57143	552.56055	-119.10871	106.11532	560.32953	-90.37764	-217.31061	579.60309	746.93744	-70.20625	580.71747	778.18164	
3503	35.020	-231.83908	12.10701	-97.76096	247.54726	21.89061	3.31231	-346.67294	61.06195	482.76779	121.85416	63.10951	582.90009	-29.87472	781.79993	-761.53223	-43.28908	552.73987	-119.50234	106.13200	559.86432	-90.36574	-217.81653	580.55212	746.61835	-70.62268	581.37317	777.88525	
3504	35.030	-231.25391	11.93918	-98.01445	247.59294	21.44452	3.01182	-346.56787	61.43892	482.52853	122.41266	63.89427	582.65778	-30.19201	780.00446	-761.48798	-43.64220	553.09454	-119.86869	105.65151	559.84705	-90.75607	-218.29507	581.38025	746.20209	-70.60422	581.12616	778.00354	
3505	35.040	-230.78075	11.77118	-98.14857	248.09029	21.25157	2.79698	-346.22968	61.69318	482.41498	122.73186	64.41157	582.45319	-30.24644	777.39258	-761.61133	-44.30135	553.55872	-120.01240	104.92253	560.06177	-91.24477	-218.63289	582.03900	746.05798	-71.82346	582.26288	777.31915	
3506	35.050	-230.44150	11.69537	-98.25050	248.49055	21.30931	2.72639	-346.72171	62.61483	482.04272	122.89675	64.67892	582.22394	-30.52643	773.95166	-762.01178	-45.19773	554.03577	-120.53076	104.33461	560.13501	-91.55508	-219.42648	582.86523	745.74658	-72.35076	582.91046	776.97522	
3507	35.060	-230.17810	11.57979	-98.35249	248.78079	21.28938	2.67230	-345.88162	63.05870	481.75183	123.30760	65.09341	582.07690	-30.56085	769.71539	-762.58057	-45.60618	554.25836	-120.80605	103.93329	560.17548	-91.75007	-219.67534	583.96765	745.53229	-72.45955	583.57190	776.61084	
3508	35.070	-229.84210	11.42110	-98.49660	250.11705	22.17273	2.94204	-345.52341	63.00492	481.93832	123.76768	65.72414	581.76660	-30.76467	764.77002	-762.94373	-45.97365	554.35352	-121.05686	103.60852	560.06696	-91.93606	-220.15680	585.09351	745.14130	-73.01307	584.43195	776.31488	
3509	35.080	-229.48906	11.25870	-98.67641	249.66595	21.73931	2.33518	-344.45892	62.95426	481.97513	124.23059	66.33482	581.53656	-30.97408	759.13654	-763.57104	-46.47105	554.16901	-121.26852	103.16705	559.80426	-92.18894	-220.32921	586.17480	744.80896	-73.25562	585.59003	776.11432	
3510	35.090	-229.17950	11.12231	-98.85341	250.11952	21.51341	1.95838	-343.91928	63.10782	481.74518	124.97476	66.74074	581.42249	-30.87982	753.23651	-764.03162	-47.79270	554.81183	-122.33546	100.35686	560.78137	-93.73400	-220.70035	587.69379	744.65833	-74.10619	586.94604	775.49951	
3511	35.100	-228.96327	10.84997	-98.83238	250.66441	21.65804	1.86167	-343.43094	63.48058	481.45920	125.32465	67.07094	581.31439	-31.09809	746.81403	-764.84692	-47.94461	554.08240	-122.45479	99.65639	560.35046	-94.37807	-221.13762	589.22638	744.18231	-74.13403	588.53320	775.27496	
3512	35.110	-228.54582	10.68331	-99.08121	251.83650	22.09766	1.67261	-342.90918	63.55544	481.24142	125.86552	67.54228	581.02960	-31.13418	740.43683	-765.53925	-48.40344	553.29480	-122.92664	101.45795	557.84552	-93.51391	-221.61647	591.08838	743.75305	-74.67127	590.33820	774.93024	
3513	35.120	-227.23802	10.00408	-99.00882	250.35115	20.61790	1.17769	-343.18195	64.22663	480.88916	126.45219	68.00454	580.87958	-31.27784	734.07343	-766.08624	-48.45074	552.17682	-123.07362	101.23276	557.09088	-93.97265	-222.00569	592.82031	743.19189	-74.73444	592.20770	774.43201	
3514	35.130	-226.54102	9.83857	-99.05386	252.55997	22.29919	1.10996	-342.69409	64.43016	480.69131	126.80712	68.35652	580.62775	-31.33075	728.42810	-766.54688	-48.78306	551.11768	-123.38155	101.29475	555.81836	-94.07458	-222.12575	594.77081	742.66321	-75.00896	594.27905	773.95038	
3515	35.140	-225.98997	9.62288	-99.07657	253.21832	21.75828	1.26395	-342.05664	64.47803	480.67569	127.54304	68.82385	580.44983	-31.39578	722.74829	-766.97223	-48.78837	549.68481	-123.69779	100.82267	554.70831	-94.34428	-222.53392	596.89496	741.89374	-75.55503	596.25476	773.40619	
3516	35.150	-225.39851	9.48598	-99.12675	253.84584	21.68784	1.51421	-341.56366	64.70101	480.47839	127.82359	68.97793	580.23499	-31.24160	718.00580	-767.27081	-48.95772	548.64276	-124.02918	98.27625	555.10742	-96.06497	-222.91281	598.70612	741.29663	-75.88507	598.35956	773.01093	
3517	35.160	-224.59117	9.30666	-99.08047	254.90903	22.15013	1.89174	-340.98306	64.64280	480.36395	128.62914	69.25848	580.12592	-31.37294	713.97858	-767.63654	-49.30093	547.06647	-124.35660	100.16140	552.63562	-95.34829	-222.96587	600.50439	741.31488	-76.00675	600.50006	772.51691	
3518	35.170	-223.99158	9.18920	-99.11094	255.08482	23.05147	2.63671	-340.28400	64.70601	480.36163	129.39667	69.46490	580.07971	-31.45982	710.77930	-767.82184	-49.20651	546.02661	-124.73692	100.55385	551.06812	-95.23930	-223.17181	602.27820	740.89087	-75.92107	602.55835	771.91888	
3519	35.180	-223.48042	9.16392	-99.10391	255.94511	22.31389	1.84575	-339.57782	64.78101	480.12616	129.97260	69.48875	580.02325	-31.49194	708.55597	-767.93427	-49.42260	544.48859	-124.91563	100.11944	550.36365	-95.87241	-223.51166	604.00977	741.17535	-76.20089	604.22186	771.58881	
3520	35.190	-223.47600	9.21275	-98.89436	256.12094	22.09533	1.23044	-338.88943	64.69172	479.98911	130.47482	69.53392	579.73993	-31.63015	707.14777	-768.04645	-49.51144	543.47845	-125.14860	100.51644	548.79706	-95.68801	-223.48592	605.48022	740.61060	-76.08906	605.59143	771.05536	
3521	35.200	-222.31067	9.21351	-99.10966	256.74344	22.12334	1.32821	-338.43707	64.67547	479.79114	131.30736	69.62122	579.46765	-31.81118	706.61450	-768.15759	-49.42566	542.36694	-125.39709	100.41205	548.23480	-96.21693	-223.45313	606.54065	739.41479	-75.98809	607.15857	770.76251	
3522	35.210	-221.58939	9.13454	-99.20618	257.29309	22.11691	1.46887	-337.98929	64.63752	479.77274	131.77487	69.60146	579.40387	-31.81439	706.68781	-768.25116	-49.43390	541.60645	-125.72816	100.39897	547.11090	-96.17706	-223.36192	607.58698	739.28979	-76.23841	608.33252	770.26422	
3523	35.220	-220.94167	9.23719	-99.02246	258.25690	22.62983	1.79604	-337.05826	64.67328	479.61087	132.54399	69.63271	579.48352	-31.57982	707.25165	-768.23541	-49.21541	540.69604	-125.92768	100.32831	546.64294	-96.82844	-223.39525	608.31451	738.60248	-76.03708	609.06769	769.83655	
3524	35.230	-220.13560	9.15630	-98.95198	258.72031	22.34937	1.44164	-336.32178	64.46219	479.54855	133.43326	69.65177	579.62952	-31.60781	708.56525	-768.26172	-49.19152	540.12988	-126.03629	101.72099	545.78192	-96.57153	-223.05809	608.87280	738.46606	-75.87984	609.67462	769.52179	
3525	35.240	-219.44060	9.15534	-98.92556	259.50137	22.81576	0.75284	-335.83139	64.48702	479.54404	134.11459	69.70153	579.52814	-31.52104	710.07990	-768.28412	-49.01749	539.78210	-126.20769	101.07227	545.54187	-96.89934	-222.93549	609.36493	738.21075	-75.89319	610.12750	769.32831	
3526	35.250	-219.37999	9.57334	-98.92989	260.42389	22.95985	0.64610	-334.95013	64.33436	479.74216	134.83830	69.59952	579.47626	-31.61700	712.07129	-768.29510	-48.82397	539.52081	-126.33064	101.49905	545.35248	-97.30858	-222.81427	609.55536	738.04053	-75.80452	610.38586	768.90186	
3527	35.260	-218.38048	9.53504	-99.06861	260.93057	22.96057	0.77615	-333.94824	64.12595	479.73843	135.77718	69.46495	579.26080	-31.22939	714.18176	-768.34631	-48.64885	539.35046	-126.55315	101.47138	545.09998	-97.44021	-222.52904	609.64117	738.44391	-75.58202	610.41113	768.79688	
3528	35.270	-217.27286	9.28524	-98.86875	261.70172	22.94849	0.67172	-333.41437	64.10420	479.67065	136.47690	69.31187	579.34088	-31.06158	716.46265	-768.27441	-48.32139	539.32745	-126.73016	99.12461	546.82623	-98.75179	-221.88968	609.51105	737.83936	-75.36196	610.30481	768.70703	
3529	35.280	-216.24588	9.28480	-98.71070	262.44318	22.89002	0.62584	-332.62262	63.91301	479.74750	137.42905	69.10336	579.61542	-31.03149	718.83051	-768.24640	-47.92348	539.26569	-126.86512	101.66742	545.26385	-97.90227	-221.48997	609.56604	737.83313	-74.63782	610.26685	768.59229	
3530	35.290	-216.06187	9.84161	-98.64222	263.07428	23.43114	0.60131	-331.66742	63.55513	479.94260	137.93419	68.93633	579.61334	-30.83403	721.27533	-768.13647	-47.59268	539.16833	-126.92401	101.83534	545.15179	-98.02127	-221.17906	609.47632	737.42737	-74.17693	610.11731	768.47156	
3531	35.300	-215.42947	9.96132	-98.62918	263.84564	23.05561	0.75232	-331.19241	63.53691	479.94492	138.77682	68.73174	579.56763	-30.54197	723.70978	-768.18329	-47.31997	539.10999	-127.00443	102.18493	545.01855	-98.06473	-220.67455	609.40247	737.47650	-73.35103	609.89142	768.27240	
